<?xml version="1.0" encoding="utf-8"?>
<!-- Generator: Adobe Illustrator 27.5.0, SVG Export Plug-In . SVG Version: 6.00 Build 0)  -->
<svg version="1.1" id="Layer_1" xmlns="http://www.w3.org/2000/svg" xmlns:xlink="http://www.w3.org/1999/xlink" x="0px" y="0px"
	 viewBox="0 0 350.1 85.4" style="enable-background:new 0 0 350.1 85.4;" xml:space="preserve">
<g>
	<path d="M73.1,3c1,0.1,1.9,0.3,2.8,0.6c0.9,0.2,1.8,0.6,2.7,1.1c0.7,0.7,1.2,1.6,1.4,2.6c0.4,1.8,0.5,3.7,0.5,5.6v19.8L57,0.9H45.2
		V3c1,0.1,2,0.4,2.9,0.8c1,0.4,2,0.9,2.9,1.7c0.6,0.6,1,1.3,1.3,2.1c0.3,0.9,0.5,1.8,0.5,2.7v20.5c0.1,1.9-0.1,3.9-0.4,5.8
		c-0.2,1-0.7,1.9-1.4,2.5c-0.7,0.4-1.5,0.8-2.3,0.9c-0.9,0.3-1.8,0.5-2.7,0.6v2.1h17v-2.1c-0.9-0.1-1.9-0.3-2.8-0.6
		c-1-0.2-1.9-0.6-2.8-1.2c-0.7-0.8-1.2-1.7-1.4-2.8c-0.4-1.8-0.5-3.7-0.5-5.5V8.9l25.2,34h2.6V12.4c0-1.8,0.1-3.5,0.4-5.3
		C83.7,6.1,84.2,5,85,4.3c0.8-0.4,1.6-0.7,2.4-0.9C88.3,3.2,89.1,3,90,2.9v-2H73.1V3z"/>
	<path d="M128.4,5.2c-1.9-1.4-4.1-2.4-6.3-3.1c-2.4-0.8-4.9-1.2-7.4-1.2H96.5V3c0.6,0.1,1.2,0.1,1.8,0.3c0.7,0.1,1.4,0.3,2,0.6
		c0.6,0.2,1.1,0.7,1.3,1.3c0.2,0.6,0.3,1.2,0.3,1.8v30c0,0.6-0.1,1.2-0.4,1.8c-0.3,0.5-0.7,0.9-1.3,1.1c-0.6,0.2-1.2,0.3-1.8,0.4
		c-0.7,0.1-1.5,0.1-2.2,0.2v2.1h17.2c2.8,0,5.6-0.4,8.3-1.2c2.6-0.8,5.1-2.1,7.2-3.7c2.2-1.7,4-3.9,5.2-6.4c1.4-2.9,2.1-6,2-9.2
		c0.1-3.4-0.6-6.8-2.1-9.9C132.8,9.3,130.8,6.9,128.4,5.2z M128.2,29.4c-0.5,2.1-1.4,4-2.6,5.7c-1.2,1.6-2.7,2.8-4.5,3.7
		c-2,0.9-4.3,1.4-6.5,1.3c-1.7,0.1-3.3-0.2-4.8-1c-1-0.7-1.6-1.9-1.6-3.7v-32l2.2-0.1c1,0,1.9,0,2.7,0c2.3,0,4.5,0.4,6.6,1.4
		c1.9,0.9,3.6,2.2,5,3.8c1.5,1.7,2.6,3.7,3.2,5.9c0.8,2.4,1.1,5,1.1,7.6C129,24.5,128.7,27,128.2,29.4L128.2,29.4z"/>
	<path d="M188.8,3c0.7,0.1,1.5,0.2,2.2,0.4c0.8,0.2,1.5,0.4,2.2,0.7c0.6,0.2,1.2,0.6,1.5,1.2c0.2,0.5,0.3,1.1,0.3,1.7V37
		c0,0.6-0.1,1.3-0.4,1.8c-0.4,0.5-0.8,0.8-1.4,1c-0.7,0.2-1.4,0.3-2.1,0.3l-2.3,0.2v2.1h18.7v-2c-0.8,0-1.6-0.1-2.4-0.3
		c-0.7-0.1-1.3-0.3-2-0.5c-0.6-0.2-1.1-0.6-1.4-1.2c-0.3-0.5-0.4-1.1-0.4-1.7V6.6c0-0.6,0.1-1.2,0.4-1.8c0.3-0.6,0.9-1,1.5-1.1
		c0.7-0.2,1.5-0.4,2.2-0.5c0.7-0.1,1.4-0.2,2.2-0.2V0.9h-18.7V3z"/>
	<path d="M241.5,3c1,0.1,1.9,0.3,2.8,0.6c0.9,0.2,1.8,0.6,2.7,1.1c0.7,0.7,1.2,1.6,1.3,2.6c0.4,1.8,0.5,3.7,0.5,5.6v19.8L225.5,0.9
		h-11.9V3c1,0.1,2,0.4,2.9,0.8c1,0.4,2,0.9,2.8,1.7c0.6,0.6,1,1.3,1.3,2.1c0.3,0.9,0.5,1.8,0.5,2.7v20.5c0.1,1.9-0.1,3.9-0.4,5.8
		c-0.2,1-0.7,1.9-1.4,2.5c-0.7,0.4-1.5,0.8-2.3,0.9c-0.9,0.3-1.8,0.5-2.7,0.6v2.1h17.1v-2.1c-0.9-0.1-1.9-0.3-2.8-0.6
		c-1-0.2-2-0.6-2.8-1.2c-0.8-0.7-1.3-1.7-1.4-2.8c-0.4-1.8-0.5-3.7-0.5-5.5V8.9l25.2,34h2.5V12.4c0-1.8,0.1-3.5,0.4-5.3
		c0.1-1.1,0.6-2.1,1.4-2.9c0.8-0.4,1.6-0.7,2.4-0.9c0.8-0.2,1.7-0.4,2.5-0.5v-2h-16.9L241.5,3z"/>
	<path d="M286.8,25.9c0.6,0,1.5,0.1,2.6,0.3c0.9,0.1,1.8,0.3,2.6,0.7c0.6,0.2,1.1,0.8,1.4,1.4c0.2,0.7,0.4,1.4,0.3,2.2v2.3
		c0,0.7,0,1.6,0,2.6c0,1-0.1,2.1-0.2,3.1c-0.9,0.8-1.9,1.3-3,1.7c-1.5,0.5-3.1,0.8-4.7,0.8c-2.2,0-4.3-0.5-6.2-1.5
		c-1.8-1-3.4-2.4-4.5-4.1c-1.3-1.8-2.2-3.9-2.8-6.1c-0.7-2.4-1-4.9-1-7.5c0-2.7,0.3-5.5,1-8.1c0.5-2.2,1.5-4.2,2.8-6.1
		c1.1-1.6,2.6-2.9,4.3-3.8c1.7-0.9,3.7-1.3,5.6-1.3c1.7,0,3.4,0.3,4.9,1.1c1.4,0.7,2.6,1.7,3.5,2.9c1,1.3,1.8,2.7,2.4,4.2
		c0.6,1.5,1.1,3.1,1.5,4.7h2.4l-0.3-14.5H297l-1.2,2c-1.5-0.9-3-1.5-4.6-2c-2-0.6-4-0.9-6.1-0.8c-2.8,0-5.6,0.5-8.2,1.6
		c-2.5,1-4.8,2.6-6.6,4.6c-1.9,2-3.4,4.4-4.4,7c-1.1,2.8-1.6,5.8-1.6,8.8c0,3,0.5,6.1,1.6,8.9c1,2.5,2.5,4.8,4.4,6.8
		c1.8,1.8,4,3.3,6.5,4.2c2.4,1,5,1.5,7.7,1.5c2.6,0,5.1-0.3,7.6-0.9c2.7-0.7,5.3-1.6,7.8-2.7c0-0.5-0.1-1.2-0.1-2c0-0.8,0-2.4,0-4.8
		v-3.3c0-0.6,0.1-1.3,0.4-1.9c0.3-0.6,0.7-1,1.2-1.2c0.6-0.3,1.3-0.5,1.9-0.5c0.8-0.1,1.4-0.2,1.9-0.3v-2.1h-18.3V25.9z"/>
	<path d="M348.2,40.1c-0.6-0.1-1.2-0.4-1.8-0.7c-0.6-0.4-1.1-0.8-1.5-1.4c-0.4-0.6-0.8-1.2-1-1.8L330.1,0.3h-2.3L321,17.7
		c-2.5,6.5-4.8,12.4-6.9,17.6c-0.3,0.8-0.7,1.6-1.3,2.4c-0.5,0.7-1.1,1.2-1.8,1.7c-0.6,0.4-1.2,0.6-1.9,0.8
		c-0.6,0.2-1.3,0.3-1.9,0.3v2.1h15.7v-2.1c-1.4-0.1-2.8-0.3-4.2-0.8c-1.2-0.4-1.9-1-1.9-1.8c0-0.4,0.1-0.9,0.1-1.3
		c0.1-0.7,0.3-1.4,0.5-2.1c0.3-0.9,0.6-1.8,0.9-2.8c0.3-1,8.6-22.3,8.6-22.3l6.3,16.1h-6.3v2.6h7.3l3.4,9.3c0.1,0.2,0.1,0.4,0.2,0.7
		c0,0.2,0.1,0.4,0.1,0.6c0,0.4-0.5,0.8-1.5,1.1c-1.2,0.3-2.5,0.5-3.8,0.6v2.1H350v-2.1C349.4,40.3,348.8,40.2,348.2,40.1z"/>
	<path d="M39.3,39.4c-0.6-0.4-1.1-0.8-1.6-1.4c-0.4-0.6-0.8-1.2-1-1.8L22.9,0.3h-2.3l-6.7,17.4c-2.5,6.5-4.8,12.4-6.9,17.6
		c-0.3,0.8-0.7,1.6-1.3,2.4c-0.5,0.6-1.1,1.2-1.8,1.6c-0.6,0.4-1.2,0.6-1.9,0.8c-0.6,0.2-1.3,0.3-1.9,0.3v2.1h15.7v-2.1
		c-1.4-0.1-2.8-0.3-4.2-0.8c-1.2-0.4-1.8-1-1.8-1.8c0-0.4,0.1-0.9,0.2-1.3c0.2-0.7,0.3-1.4,0.6-2c0.3-0.9,0.6-1.8,0.9-2.8
		c0.3-1,8.6-22.3,8.6-22.3l6.3,16.1h-6.3v2.6h7.4l3.4,9.3c0.1,0.2,0.1,0.4,0.2,0.7c0,0.2,0.1,0.4,0.1,0.6c0,0.4-0.5,0.8-1.5,1.1
		c-1.2,0.3-2.5,0.5-3.8,0.6v2.1h17.2v-2.1c-0.6,0-1.2-0.1-1.8-0.3C40.4,39.9,39.8,39.7,39.3,39.4z"/>
	<path d="M181,39.6c-0.7-0.4-1.4-0.8-2.1-1.4c-0.9-0.8-1.7-1.6-2.3-2.6c-2-2.7-3.7-4.9-5-6.8c-1.3-1.8-3-4.1-5.1-6.9
		c1.4-0.4,2.8-0.9,4.1-1.6c1.2-0.6,2.2-1.3,3.2-2.2c1-0.9,1.7-2,2.2-3.2c0.5-1.4,0.8-2.8,0.7-4.2c0-1.6-0.3-3.2-1.1-4.6
		c-0.7-1.2-1.7-2.3-2.9-3.1c-1.3-0.8-2.7-1.4-4.2-1.7c-1.6-0.4-3.3-0.6-5-0.5h-19.1V3c0.7,0.1,1.3,0.1,2,0.3
		c0.6,0.1,1.3,0.3,1.9,0.5c0.6,0.2,1.1,0.6,1.4,1.2c0.2,0.6,0.3,1.2,0.3,1.8v30c0,0.7-0.1,1.3-0.4,1.9c-0.3,0.5-0.7,0.9-1.3,1.1
		c-0.6,0.2-1.2,0.3-1.9,0.4l-2,0.2v2.1h17.5v-2.1c-0.6,0-1.3-0.1-2.2-0.2c-0.6-0.1-1.2-0.2-1.9-0.4c-0.6-0.2-1.1-0.6-1.4-1.2
		c-0.2-0.6-0.3-1.2-0.3-1.8V3.3h5c4.2-0.4,7.9,2.7,8.3,6.8c0,0.5,0,0.9,0,1.4c0.3,5-3.4,9.3-8.4,9.6c-0.2,0-0.4,0-0.6,0v2.5
		c2.3,3,4.5,5.9,6.5,8.8c2,2.8,4.2,6.2,6.7,10.1h11.2v-2.1c-0.6,0-1.3-0.1-1.9-0.2C182.2,40.1,181.6,39.9,181,39.6z"/>
	<rect y="76.7" width="83.2" height="1"/>
	<rect x="266.8" y="76.7" width="83.2" height="1"/>
	<path d="M117.8,81.1c0,1.2-0.5,2.4-1.5,3.1c-1.1,0.8-2.5,1.2-3.9,1.2c-1.5,0.1-3-0.2-4.4-0.6v-1.1c1.4,0.5,2.9,0.8,4.4,0.7
		c1.1,0.1,2.2-0.3,3.1-0.9c0.7-0.6,1.2-1.4,1.1-2.3c0-0.5-0.1-1-0.4-1.5c-0.3-0.5-0.7-0.8-1.2-1.1c-0.8-0.4-1.6-0.8-2.5-1.1
		c-1.2-0.3-2.4-1-3.4-1.8c-1.4-1.6-1.2-4.1,0.4-5.4c0,0,0,0,0,0c1-0.8,2.3-1.2,3.6-1.1c1.4,0,2.9,0.3,4.2,0.8l-0.4,1
		c-1.2-0.5-2.5-0.8-3.8-0.8c-1-0.1-2,0.2-2.8,0.8c-0.7,0.5-1,1.4-1,2.2c0,0.5,0.1,1,0.3,1.4c0.2,0.4,0.6,0.8,1,1
		c0.8,0.4,1.6,0.8,2.5,1.1c1,0.3,1.9,0.7,2.8,1.2c0.6,0.3,1,0.8,1.4,1.4C117.7,79.8,117.8,80.5,117.8,81.1z"/>
	<path d="M137,85.2h-1.1V70.4h-5.2v-1h11.4v1H137L137,85.2z"/>
	<path d="M167.9,69.3v10.2c0.1,1.6-0.5,3.1-1.6,4.3c-1.2,1.1-2.8,1.6-4.4,1.5c-2.9,0.3-5.6-1.9-5.8-4.8c0-0.3,0-0.7,0-1V69.3h1.1
		v10.2c-0.2,2.4,1.5,4.6,3.9,4.8c0.3,0,0.6,0,0.9,0c2.4,0.2,4.5-1.5,4.7-3.9c0-0.3,0-0.6,0-0.9V69.3H167.9z"/>
	<path d="M196,77.1c0,2.7-0.7,4.7-2.1,6c-1.4,1.3-3.4,2-6.1,2H184V69.3h4.3c3.8-0.5,7.3,2.2,7.7,6C196.1,75.9,196.1,76.5,196,77.1
		L196,77.1z M194.8,77.1c0.5-3.3-1.9-6.4-5.2-6.8c-0.5-0.1-1.1-0.1-1.6,0h-2.9v13.9h2.6C192.4,84.2,194.8,81.9,194.8,77.1
		L194.8,77.1z"/>
	<path d="M211.4,85.2V69.3h1.1v15.8L211.4,85.2z"/>
	<path d="M242,77.2c0.1,2.2-0.5,4.3-1.9,6c-2.8,2.9-7.4,2.9-10.2,0.2c-0.1,0-0.1-0.1-0.2-0.2c-1.3-1.7-2-3.8-1.9-6
		c-0.1-2.2,0.5-4.3,1.9-6c1.3-1.5,3.2-2.3,5.2-2.2c2-0.1,3.9,0.7,5.2,2.2C241.5,73,242.2,75.1,242,77.2z M229,77.2
		c-0.1,1.9,0.4,3.7,1.5,5.3c2.3,2.4,6.2,2.5,8.6,0.1c0,0,0.1-0.1,0.1-0.1c1.1-1.5,1.6-3.4,1.5-5.3c0.1-1.9-0.4-3.7-1.5-5.2
		c-2.4-2.4-6.2-2.4-8.6-0.1c0,0-0.1,0.1-0.1,0.1C229.5,73.5,229,75.4,229,77.2L229,77.2z"/>
</g>
</svg>
